<svg width="526" height="470" fill="none" xmlns="http://www.w3.org/2000/svg"><g clip-path="url(#clip0_2951_8496)"><rect width="58" height="58" rx="13.2" transform="matrix(1 0 0 1 120.3 309)" fill="#FAB005"/><path d="M144.8 342.5a1.5 1.5 0 1 0-.001-3.001 1.5 1.5 0 0 0 .001 3.001zM153.8 342.5a1.5 1.5 0 1 0-.001-3.001 1.5 1.5 0 0 0 .001 3.001z" fill="#FFD43B"/><path fill-rule="evenodd" clip-rule="evenodd" d="M159.8 332a6 6 0 0 0-6-6h-9a6 6 0 0 0-6 6v18h3v-3h15v3h3v-18zm-15-3h9a3 3 0 0 1 3 3v3h-15v-3a3 3 0 0 1 3-3zm-3 9h15v6h-15v-6z" fill="#FFD43B"/><path d="M137.3 333.5h-3v6h3v-6zM164.3 333.5h-3v6h3v-6z" fill="#FFD43B"/><rect width="58" height="58" rx="12.711" transform="matrix(1 0 0 1 350.399 309)" fill="#9C36B5"/><path d="M379.399 335a2 2 0 1 0 0 4 2 2 0 0 0 0-4z" fill="#E599F7"/><path fill-rule="evenodd" clip-rule="evenodd" d="M365.399 337c0-7.732 6.268-14 14-14s14 6.268 14 14v2a7 7 0 0 1-7 7h-.428a6.545 6.545 0 0 1-2.122-.351 8.048 8.048 0 0 1-.45.281V349a4 4 0 0 1-4 4c-7.732 0-14-6.268-14-14v-2zm2 0c0-6.627 5.373-12 12-12 6.628 0 12 5.373 12 12a5 5 0 0 1-5 5h-.428a4.547 4.547 0 0 1-1.859-.394 1.001 1.001 0 0 0-1.023.126 6 6 0 1 1 2.31-4.732 1 1 0 0 0 2 0 8 8 0 1 0-16 0 8 8 0 0 0 8 8 2 2 0 1 1 0 4c-6.627 0-12-5.373-12-12z" fill="#E599F7"/><rect x="83" y="389" width="80" height="80.53" rx="17.143" fill="#E599F7"/><path fill-rule="evenodd" clip-rule="evenodd" d="M123 411.857c-9.202 0-17.408 6.245-17.408 16.248a3.482 3.482 0 0 0 3.481 3.481h9.285c.641 0 1.16.52 1.16 1.161v5.802a8.124 8.124 0 0 0 8.124 8.124 8.124 8.124 0 0 0 8.124-8.124 3.482 3.482 0 0 0-6.963 0 1.161 1.161 0 0 1-2.321 0v-5.802a1.16 1.16 0 0 1 1.16-1.161h9.285a3.482 3.482 0 0 0 3.481-3.481c0-10.003-8.206-16.248-17.408-16.248zm-13.927 16.248c0-7.674 6.215-12.766 13.927-12.766a.87.87 0 0 0 0-1.741c-8.466 0-15.668 5.677-15.668 14.507a.87.87 0 0 0 1.741 0zM123 432.747a.871.871 0 0 0-1.741 0v5.803a.87.87 0 1 0 1.741 0v-5.803zm9.284 4.062c-.961 0-1.741.779-1.741 1.741a2.901 2.901 0 0 1-2.901 2.901.87.87 0 1 0 0 1.741 4.642 4.642 0 0 0 4.642-4.642.87.87 0 0 0 0-1.741z" fill="#9C36B5"/><rect width="80" height="80" rx="17.778" transform="matrix(1 0 0 1 374.231 390)" fill="#FAB005"/><path d="M421.798 431.869c.736.49.934 1.483.444 2.218-1.702 2.554-4.579 3.913-8.011 3.913-1.338 0-2.596-.205-3.74-.615a1.6 1.6 0 1 1 1.081-3.012c.759.272 1.647.427 2.659.427 2.562 0 4.343-.979 5.348-2.487a1.6 1.6 0 0 1 2.219-.444zM409.431 425.2a1.6 1.6 0 1 0-3.2 0v3.2a1.6 1.6 0 0 0 3.2 0v-3.2zM417.431 425.2a1.6 1.6 0 1 0-3.2 0v3.2a1.6 1.6 0 0 0 3.2 0v-3.2z" fill="#FFD43B"/><path fill-rule="evenodd" clip-rule="evenodd" d="M402.6 418.369c2.852-2.852 6.887-4.369 11.631-4.369 4.745 0 8.78 1.517 11.632 4.369 2.852 2.852 4.368 6.886 4.368 11.631s-1.516 8.779-4.368 11.631c-2.852 2.852-6.887 4.369-11.632 4.369-4.744 0-8.779-1.517-11.631-4.369-2.852-2.852-4.369-6.886-4.369-11.631s1.517-8.779 4.369-11.631zm2.263 2.262c-2.148 2.148-3.432 5.314-3.432 9.369s1.284 7.221 3.432 9.369c2.148 2.148 5.313 3.431 9.368 3.431 4.056 0 7.221-1.283 9.369-3.431 2.148-2.148 3.431-5.314 3.431-9.369s-1.283-7.221-3.431-9.369c-2.148-2.148-5.313-3.431-9.369-3.431-4.055 0-7.22 1.283-9.368 3.431z" fill="#FFD43B"/><rect y="308.857" width="76" height="76" rx="17.143" fill="#FFD43B"/><path d="M33.313 331.232v3.125h-3.126v-3.125h3.125zM30.188 343.732h-3.125v-9.375h3.125v9.375zM33.313 346.857h-3.126v-3.125h3.125v3.125zM42.688 346.857h-9.376v3.125h3.126v9.375h-12.5v-9.375h3.125v3.125h3.125v3.125h3.125v-3.125h-3.126v-3.125h-3.125v-3.125h-3.125v3.125h-3.125v9.375h3.125v3.125h28.125v-3.125h3.126v-9.375h-3.126v-3.125h-3.124v3.125h-3.126v3.125h-3.124v3.125h3.124v-3.125h3.126v-3.125h3.124v9.375h-12.5v-9.375h3.126v-3.125zM45.813 343.732h-3.126v3.125h3.126v-3.125zM45.813 334.357h3.124v9.375h-3.124v-9.375zM42.688 334.357h3.124v-3.125h-3.124v3.125zM39.563 334.357h3.124v3.125h-3.124v-3.125zM36.438 334.357v3.125h-3.126v-3.125h3.126zM36.438 334.357h3.124v-3.125h-3.124v3.125z" fill="#FAB005"/><rect width="76" height="76" rx="17.778" transform="matrix(1 0 0 1 450 309)" fill="#FFD43B"/><path fill-rule="evenodd" clip-rule="evenodd" d="M471.397 350.367a3.562 3.562 0 0 1 1.166-6.929h.028c.524 0 .987-.344 1.137-.847l2.039-6.797a5.94 5.94 0 0 1 5.688-4.232h13.09a5.94 5.94 0 0 1 5.688 4.232l2.039 6.797c.15.503.613.847 1.137.847h.029a3.562 3.562 0 0 1 1.166 6.929c-.62.215-1.166.727-1.166 1.383v7.125a3.563 3.563 0 1 1-7.125 0c0-.656-.532-1.187-1.188-1.187h-14.25c-.656 0-1.187.531-1.187 1.187a3.563 3.563 0 1 1-7.125 0v-7.125c0-.656-.547-1.168-1.166-1.383zm10.687-10.833a1.187 1.187 0 0 1 1.138-.846h9.556c.525 0 .987.343 1.138.846l.712 2.375a1.187 1.187 0 0 1-1.137 1.529h-10.982a1.187 1.187 0 0 1-1.137-1.529l.712-2.375zm-1.209 13.404a2.375 2.375 0 1 0 0-4.75 2.375 2.375 0 0 0 0 4.75zm16.625-2.376a2.375 2.375 0 1 1-4.75.001 2.375 2.375 0 0 1 4.75-.001zm-18.312-13.746a2.375 2.375 0 0 1 2.274-1.692h13.091a.891.891 0 0 0 0-1.781h-13.091a4.157 4.157 0 0 0-3.981 2.962l-2.039 6.797a2.967 2.967 0 0 1-2.843 2.116h-.029c-.983 0-1.781.797-1.781 1.781a.89.89 0 0 0 1.781 0h.029a4.75 4.75 0 0 0 4.549-3.385l2.04-6.798zm19.063 5.431a.89.89 0 1 0-1.781.003 2.984 2.984 0 0 1-1.406 2.524.89.89 0 1 0 .942 1.512 4.767 4.767 0 0 0 2.245-4.039zm-14.991 2.971a.89.89 0 1 0 0 1.781h9.496a.89.89 0 0 0 0-1.781h-9.496zm3.56 5.343a.89.89 0 1 0-1.781 0 4.154 4.154 0 0 1-2.199 3.668.89.89 0 0 0 .84 1.571 5.937 5.937 0 0 0 3.14-5.239zm14.25 0a.89.89 0 1 0-1.781 0 4.16 4.16 0 0 1-2.85 3.948.89.89 0 1 0 .559 1.691 5.94 5.94 0 0 0 4.072-5.639zm-24.937 1.188a.891.891 0 0 0-1.781 0v7.125a.89.89 0 1 0 1.781 0v-7.125z" fill="#FAB005"/><path opacity=".2" fill-rule="evenodd" clip-rule="evenodd" d="M164.942 67.098C152.93 49.078 132.156 37 108.8 37c-37.825 0-68 30.375-68 67.5v3.797C17 116.312 0 139.094 0 165.25 0 199 27.2 226 61.2 226h156.4c.218 0 .435-.001.652-.004.283.003.565.004.848.004h227.7c43.313 0 79.2-35.116 79.2-78.857 0-37.581-27.225-69.616-63.731-77.01 2.475-6.776 4.331-13.553 4.331-21.562 0-32.651-26.606-59.142-59.4-59.142-12.375 0-24.131 3.696-33.413 10.473C357.081-29.67 324.906-50 288.4-50c-55.069 0-99 44.357-99 98.571v5.545a86.143 86.143 0 0 0-24.458 12.982z" fill="#B197FC"/><path d="M193 251h149l64 207H124l69-207z" fill="url(#paint0_linear_2951_8496)"/><path d="M222 251h87.5L356 458H174l48-207z" fill="url(#paint1_linear_2951_8496)"/><path d="M374 182v17H156v-17c0-59.647 48.801-108 109-108s109 48.353 109 108z" fill="#fff"/><path opacity=".2" fill-rule="evenodd" clip-rule="evenodd" d="M320.92 96.496C302.495 151.98 250.171 192 188.5 192c-6.39 0-12.68-.43-18.842-1.262 5.697 48.974 47.32 86.985 97.822 86.985 54.393 0 98.487-44.094 98.487-98.486 0-34.694-17.939-65.197-45.047-82.741z" fill="#74C0FC"/><path d="M160 182c0-57.403 46.975-104 105-104s105 46.597 105 104v13H160v-13z" stroke="#fff" stroke-width="8"/><path d="M156 182l-54.616 31.661c-7.47 4.331-9.16 14.387-3.515 20.92a215.207 215.207 0 0 0 157.137 74.443l10.385.276a211.468 211.468 0 0 0 167.188-74.96c5.434-6.434 3.734-16.217-3.553-20.441L374 182H156z" fill="#515F7C"/><path fill-rule="evenodd" clip-rule="evenodd" d="M97.81 234.512a248.293 248.293 0 0 0 141.509 48.199l40.904.922a245.335 245.335 0 0 0 151.053-47.763 211.472 211.472 0 0 1-165.884 73.43l-10.385-.276A215.208 215.208 0 0 1 97.81 234.512z" fill="#193154"/><path d="M173 221.5c0 6.351-5.149 11.5-11.5 11.5s-11.5-5.149-11.5-11.5 5.149-11.5 11.5-11.5 11.5 5.149 11.5 11.5zM276 226.5c0 6.351-5.149 11.5-11.5 11.5s-11.5-5.149-11.5-11.5 5.149-11.5 11.5-11.5 11.5 5.149 11.5 11.5zM367.5 233c6.351 0 11.5-5.149 11.5-11.5s-5.149-11.5-11.5-11.5-11.5 5.149-11.5 11.5 5.149 11.5 11.5 11.5z" fill="#FFD43B"/><path opacity=".4" fill-rule="evenodd" clip-rule="evenodd" d="M168 215.5c0 6.351-5.149 11.5-11.5 11.5-2.121 0-4.108-.574-5.813-1.576 1.604 4.419 5.839 7.576 10.813 7.576 6.351 0 11.5-5.149 11.5-11.5 0-4.23-2.285-7.927-5.687-9.924.445 1.224.687 2.546.687 3.924zm103 5c0 6.351-5.149 11.5-11.5 11.5-2.121 0-4.108-.574-5.813-1.576 1.604 4.419 5.839 7.576 10.813 7.576 6.351 0 11.5-5.149 11.5-11.5 0-4.23-2.285-7.927-5.687-9.924.445 1.224.687 2.546.687 3.924zm103-5c0 6.351-5.149 11.5-11.5 11.5-2.121 0-4.108-.574-5.813-1.576 1.604 4.419 5.839 7.576 10.813 7.576 6.351 0 11.5-5.149 11.5-11.5 0-4.23-2.285-7.927-5.687-9.924.445 1.224.687 2.546.687 3.924z" fill="#FAB005"/><rect width="88" height="88" rx="21.094" transform="matrix(1 0 0 1 219 343)" fill="#9C36B5"/><path fill-rule="evenodd" clip-rule="evenodd" d="M258.398 367.299l-.429 1.622c.429-1.622.43-1.622.43-1.621h.002l.005.002.014.003.042.012a16.556 16.556 0 0 1 .656.203 25.54 25.54 0 0 1 1.778.675 29.926 29.926 0 0 1 5.557 3.083c4.199 2.958 8.865 7.916 10.541 15.806l.388 1.826-17.32 1.787v2.826l21.386-2.138v4.369c0 6.252-5.069 11.32-11.321 11.32H255.034c-5.789 0-10.482-4.693-10.482-10.482v-1.518l12.156-1.215v-2.816l-10.285 1.061 10.564-25.178 1.411.373zm11.367 18.663l-9.703 1.169v-15.158a25.828 25.828 0 0 1 3.36 2.552c2.841 2.558 5.653 6.303 6.343 11.437zm-18.039 2.174l4.982-11.876v11.275l-4.982.601zm7.917 15.584h-1.328a7.131 7.131 0 0 1-6.962-5.955l23.384-2.338v.325c0 4.4-3.567 7.966-7.966 7.966h-7.128v.002zm18.442-7.586c.005-.126.008-.253.008-.38v-.663h-.002v.661c0 .128-.002.255-.006.382z" fill="#E599F7"/></g><defs><linearGradient id="paint0_linear_2951_8496" x1="265" y1="251" x2="265" y2="458" gradientUnits="userSpaceOnUse"><stop stop-color="#74C0FC"/><stop offset="1" stop-color="#D9D9D9" stop-opacity="0"/></linearGradient><linearGradient id="paint1_linear_2951_8496" x1="265" y1="251" x2="265" y2="458" gradientUnits="userSpaceOnUse"><stop stop-color="#74C0FC"/><stop offset="1" stop-color="#D9D9D9" stop-opacity="0"/></linearGradient><clipPath id="clip0_2951_8496"><path fill="#fff" d="M0 0h526v470H0z"/></clipPath></defs></svg>