<svg width="584" height="500" fill="none" xmlns="http://www.w3.org/2000/svg"><g clip-path="url(#clip0_1699_13098)"><path opacity=".25" d="M454.131 229.306l-58.677 30.282c-17.035 8.517-28.391 23.657-29.338 40.691l-4.732 58.67c-2.839 42.584-61.515 63.402-98.424 35.013l-51.105-38.798c-15.143-11.356-35.017-15.141-53.945-11.356l-66.247 15.141c-47.32 10.41-88.96-31.228-69.087-70.026l26.5-53.939c8.517-15.141 6.624-33.12-3.786-47.315L8.38 137.515c-26.498-35.959 6.625-82.328 55.838-78.542l68.14 5.677c18.928 1.893 37.855-5.677 50.158-17.98L226.05 1.249c31.231-32.174 92.747-19.872 104.103 21.765l15.143 56.778c3.785 17.034 17.981 30.282 35.963 36.906l63.408 20.818c46.373 16.087 52.051 70.026 9.464 91.791z" fill="#E599F7"/><path d="M108 235h304c8.837 0 16 7.163 16 16v225c0 8.837-7.163 16-16 16H108c-8.837 0-16-7.163-16-16V251c0-8.837 7.163-16 16-16z" fill="#001D40" stroke="#C2C7D1" stroke-width="16"/><path d="M310 468h126v16c0 8.837-7.163 16-16 16H310v-32z" fill="#8991A6"/><path d="M345 476a8 8 0 0 0-8-8H8a8 8 0 0 0-8 8v8c0 8.837 7.163 16 16 16h313c8.837 0 16-7.163 16-16v-8z" fill="#C2C7D1"/><path opacity=".25" d="M104 251a4 4 0 0 1 4-4h200L104 438V251z" fill="url(#paint0_linear_1699_13098)"/><g style="mix-blend-mode:screen"><path fill-rule="evenodd" clip-rule="evenodd" d="M242.562 296c-5.456 0-10.142 3.641-11.702 8.582l-.005.017-3.336 9.401H206c-9.563 0-17 7.698-17 17v72c0 9.573 7.427 17 17 17h108c9.302 0 17-7.437 17-17v-72c0-9.291-7.709-17-17-17h-21.8l-3.336-9.401-.005-.017c-1.56-4.941-6.247-8.582-11.703-8.582h-34.594zm-13.604 7.963c1.82-5.738 7.254-9.963 13.604-9.963h34.594c6.35 0 11.785 4.225 13.605 9.963l2.852 8.037H314c10.396 0 19 8.604 19 19v72c0 10.687-8.614 19-19 19H206c-10.677 0-19-8.323-19-19v-72c0-10.386 8.313-19 19-19h20.106l2.852-8.037zM232 367c0-15.452 12.253-28 28-28 15.459 0 28 12.541 28 28s-12.541 28-28 28c-15.747 0-28-12.548-28-28zm28-26c-14.628 0-26 11.639-26 26s11.372 26 26 26c14.354 0 26-11.646 26-26s-11.646-26-26-26z" fill="#8991A6"/><circle cx="206" cy="313" r="2.75" fill="#fff" stroke="#fff" stroke-width="1.5"/><circle cx="227" cy="313" r="2.75" fill="#fff" stroke="#fff" stroke-width="1.5"/><circle cx="293" cy="313" r="2.75" fill="#fff" stroke="#fff" stroke-width="1.5"/><circle cx="277" cy="295" r="2.75" fill="#fff" stroke="#fff" stroke-width="1.5"/><circle cx="290" cy="304" r="2.75" fill="#fff" stroke="#fff" stroke-width="1.5"/><circle r="2.75" transform="matrix(-1 0 0 1 243 295)" fill="#fff" stroke="#fff" stroke-width="1.5"/><circle r="2.75" transform="matrix(-1 0 0 1 230 304)" fill="#fff" stroke="#fff" stroke-width="1.5"/><circle cx="260" cy="340" r="2.75" fill="#fff" stroke="#fff" stroke-width="1.5"/><circle cx="260" cy="394" r="2.75" fill="#fff" stroke="#fff" stroke-width="1.5"/><circle cx="287" cy="367" r="2.75" transform="rotate(90 287 367)" fill="#fff" stroke="#fff" stroke-width="1.5"/><circle cx="233" cy="367" r="2.75" transform="rotate(90 233 367)" fill="#fff" stroke="#fff" stroke-width="1.5"/><circle cx="188" cy="331" r="2.75" fill="#fff" stroke="#fff" stroke-width="1.5"/><circle r="2.75" transform="matrix(1 0 0 -1 206 421)" fill="#fff" stroke="#fff" stroke-width="1.5"/><circle r="2.75" transform="matrix(1 0 0 -1 188 403)" fill="#fff" stroke="#fff" stroke-width="1.5"/><circle r="2.75" transform="matrix(-1 0 0 1 314 313)" fill="#fff" stroke="#fff" stroke-width="1.5"/><circle r="2.75" transform="matrix(-1 0 0 1 332 331)" fill="#fff" stroke="#fff" stroke-width="1.5"/><circle cx="314" cy="421" r="2.75" transform="rotate(-180 314 421)" fill="#fff" stroke="#fff" stroke-width="1.5"/><circle cx="332" cy="403" r="2.75" transform="rotate(-180 332 403)" fill="#fff" stroke="#fff" stroke-width="1.5"/></g><path d="M447 398c0-6.627 5.373-12 12-12h82c6.627 0 12 5.373 12 12v78c0 13.255-10.745 24-24 24h-58c-13.255 0-24-10.745-24-24v-78z" fill="#9C36B5"/><g opacity=".3" filter="url(#filter0_i_1699_13098)"><path d="M514 500h15c13.255 0 24-10.745 24-24v-78c0-6.627-5.373-12-12-12h-15c6.627 0 12 5.373 12 12v78c0 13.255-10.745 24-24 24z" fill="#193154"/></g><path d="M548 476h1c18.778 0 34-15.222 34-34v-10c0-18.778-15.222-34-34-34h-1v20h1c7.732 0 14 6.268 14 14v10c0 7.732-6.268 14-14 14h-1v20z" fill="#733294"/><g opacity=".5" fill="#E599F7"><path fill-rule="evenodd" clip-rule="evenodd" d="M447 473.395l1.533-.781c1.055-.527 1.978-1.45 2.637-2.505l7.515-12.92c4.086 1.582 8.569 2.373 13.315 2.373 11.865 0 22.676-5.537 29.531-14.238 1.45-1.714 1.187-4.35-.659-5.932-1.714-1.451-4.482-1.055-5.933.659-5.405 6.855-13.71 11.074-22.939 11.074-3.164 0-6.196-.396-9.097-1.318l8.965-15.557H472l6.724 11.733c4.482-1.186 8.569-3.691 11.733-6.987l-6.987-11.997c.659-1.714 1.186-3.428 1.186-5.405 0-6.988-5.669-12.656-12.656-12.656-7.119 0-12.656 5.668-12.656 12.656 0 1.977.395 3.691 1.054 5.405l-9.096 15.82c-.923-.923-1.714-1.714-2.373-2.768A4.39 4.39 0 0 0 447 438.75v34.645zm29.219-51.801c0 2.373-1.978 4.218-4.219 4.218-2.373 0-4.219-1.845-4.219-4.218 0-2.241 1.846-4.219 4.219-4.219 2.241 0 4.219 1.978 4.219 4.219z"/><path d="M499.026 453.894a36.491 36.491 0 0 1-11.733 6.987l5.405 9.228c.659 1.055 1.582 1.978 2.637 2.505l7.251 3.692c.659.263 1.45.263 2.109-.132.659-.396 1.055-1.055 1.055-1.846v-7.251c0-1.055-.396-2.241-.923-3.164l-5.801-10.019z"/></g><g clip-path="url(#clip1_1699_13098)"><path fill="#C2C7D1" d="M502 343h22v48h-22z"/><path d="M525.842 310.921c.001-7.136-5.784-12.921-12.92-12.921s-12.921 5.785-12.921 12.921L500 360.5a3.374 3.374 0 0 0 3.375 3.375h19.092a3.375 3.375 0 0 0 3.375-3.375v-39.979h.324a3.375 3.375 0 0 1 3.375 3.375V359a3.375 3.375 0 1 0 6.75 0v-35.104c0-5.592-4.533-10.125-10.125-10.125h-.324v-2.85z" fill="#193154"/><ellipse cx="465.5" cy="319.5" rx="15.5" ry="15.5" transform="rotate(90 465.5 319.5)" fill="#E599F7"/><path fill-rule="evenodd" clip-rule="evenodd" d="M485.231 393.005a7.876 7.876 0 0 1-9.625-5.603L468.5 360.5l15-4 7.334 26.879a7.876 7.876 0 0 1-5.603 9.626z" fill="#fff"/><path fill-rule="evenodd" clip-rule="evenodd" d="M476.875 330.523L483.5 356.5l-15 4-6.87-26.02 15.245-3.957z" fill="#515F7C"/><path d="M458.392 317.012l.984-1.348a12.659 12.659 0 0 1 10.223-5.214h5.784c.918 0 1.8-.162 2.617-.459a15.695 15.695 0 0 0-5.92-4.643c-2.254-1.018-3.703-3.816-2.468-5.974l.336-.588c1.238-2.163.503-4.93-1.64-6.179a4.46 4.46 0 0 0-6.123 1.656l-10.084 17.628s0 .001 0 0l.001.001a15.875 15.875 0 0 0-2.102 7.651 7.194 7.194 0 0 0 2.533.457 7.257 7.257 0 0 0 5.859-2.988z" fill="#9C36B5"/><path opacity=".3" fill-rule="evenodd" clip-rule="evenodd" d="M480.72 392.859a7.876 7.876 0 0 0 5.114-9.48L478.5 356.5h.001l-6.625-25.977-.653.169A15.453 15.453 0 0 0 476 319.5c0-3.552-1.194-6.824-3.204-9.438a9.71 9.71 0 0 0 .204-.071 15.681 15.681 0 0 0-4.469-3.895c-.476-.277-.96-.526-1.45-.748-2.254-1.018-3.703-3.816-2.469-5.974l.337-.588c1.186-2.074.56-4.703-1.383-6.017a4.449 4.449 0 0 1 4.742-.162c2.144 1.249 2.878 4.016 1.641 6.179l-.337.588c-1.234 2.158.215 4.956 2.469 5.974.49.222.974.471 1.45.748a15.681 15.681 0 0 1 4.469 3.895 9.71 9.71 0 0 1-.204.071A15.427 15.427 0 0 1 481 319.5c0 4.4-1.833 8.371-4.777 11.192l.653-.169 6.625 25.977h-.001l7.334 26.879a7.874 7.874 0 0 1-10.114 9.48zM519 391h5v-27.492a3.376 3.376 0 0 0 1.843-3.008v-39.979h.324a3.375 3.375 0 0 1 3.375 3.375V359a3.375 3.375 0 1 0 6.75 0v-35.104c0-5.592-4.533-10.125-10.125-10.125h-.324v-2.85c0-7.136-5.785-12.921-12.921-12.921-.855 0-1.691.083-2.5.242 5.94 1.164 10.421 6.398 10.421 12.679V360.5a3.376 3.376 0 0 1-1.843 3.008V391z" fill="#193154"/></g></g><defs><filter id="filter0_i_1699_13098" x="514" y="386" width="39" height="114" filterUnits="userSpaceOnUse" color-interpolation-filters="sRGB"><feFlood flood-opacity="0" result="BackgroundImageFix"/><feBlend in="SourceGraphic" in2="BackgroundImageFix" result="shape"/><feColorMatrix in="SourceAlpha" values="0 0 0 0 0 0 0 0 0 0 0 0 0 0 0 0 0 0 127 0" result="hardAlpha"/><feOffset dx="-16"/><feComposite in2="hardAlpha" operator="arithmetic" k2="-1" k3="1"/><feColorMatrix values="0 0 0 0 0.0980392 0 0 0 0 0.192157 0 0 0 0 0.329412 0 0 0 0.25 0"/><feBlend mode="multiply" in2="shape" result="effect1_innerShadow_1699_13098"/></filter><linearGradient id="paint0_linear_1699_13098" x1="162" y1="247" x2="213" y2="368" gradientUnits="userSpaceOnUse"><stop stop-color="#fff"/><stop offset="1" stop-color="#fff" stop-opacity="0"/></linearGradient><clipPath id="clip0_1699_13098"><path fill="#fff" d="M0 0h584v500H0z"/></clipPath><clipPath id="clip1_1699_13098"><path fill="#fff" transform="translate(447 284)" d="M0 0h106v102H0z"/></clipPath></defs></svg>