<svg width="526" height="470" fill="none" xmlns="http://www.w3.org/2000/svg"><g clip-path="url(#clip0_2951_6528)"><path opacity=".2" fill-rule="evenodd" clip-rule="evenodd" d="M526 97c0 119.846-97.154 217-217 217S92 216.846 92 97s97.154-217 217-217S526-22.846 526 97z" fill="#E599F7"/><circle cx="152" cy="282" r="152" fill="#fff"/><g opacity=".58" filter="url(#filter0_f_2951_6528)"><ellipse cx="152" cy="281.5" rx="99" ry="98.5" fill="#E599F7"/></g><path fill-rule="evenodd" clip-rule="evenodd" d="M85 233c0-8.75 7-16 16-16h96c8.75 0 16 7.25 16 16v21.666A12.33 12.33 0 0 0 197.456 262l-6.67 17.786-9.059 3.397-15.977-23.433c-1-1.75-3-2.75-4.75-2.75-2 0-4 1-5 2.75l-21.75 32-6.75-8.5c-1-1.25-2.75-2.25-4.5-2.25-2 0-3.75 1-4.75 2.25l-16 20c-1.5 2-1.75 4.5-.75 6.5s3 3.25 5.5 3.25H182.216l8.57 3.214L195.581 329H101c-9 0-16-7-16-16v-80zm28 24c4.25 0 8-2.25 10.25-6 2.25-3.5 2.25-8.25 0-12-2.25-3.5-6-6-10.25-6-4.5 0-8.25 2.5-10.5 6-2.25 3.75-2.25 8.5 0 12 2.25 3.75 6 6 10.5 6z" fill="#E599F7"/><g filter="url(#filter1_f_2951_6528)"><path fill-rule="evenodd" clip-rule="evenodd" d="M221 286l-7.947-21.191a4.327 4.327 0 0 0-8.106 0L197 286l-21.191 7.947a4.327 4.327 0 0 0 0 8.106L197 310l7.947 21.191a4.327 4.327 0 0 0 8.106 0L221 310l21.191-7.947a4.327 4.327 0 0 0 0-8.106L221 286z" fill="#fff"/><path d="M243.244 291.138l-19.914-7.468-7.468-19.914a7.328 7.328 0 0 0-13.724 0l-7.468 19.914-19.914 7.468a7.328 7.328 0 0 0 0 13.724l19.914 7.468 7.468 19.914a7.328 7.328 0 0 0 13.724 0l7.468-19.914 19.914-7.468a7.328 7.328 0 0 0 0-13.724z" stroke="#fff" stroke-width="6"/></g><path fill-rule="evenodd" clip-rule="evenodd" d="M221 286l-7.947-21.191a4.327 4.327 0 0 0-8.106 0L197 286l-21.191 7.947a4.327 4.327 0 0 0 0 8.106L197 310l7.947 21.191a4.327 4.327 0 0 0 8.106 0L221 310l21.191-7.947a4.327 4.327 0 0 0 0-8.106L221 286z" fill="#FAB005"/><path fill-rule="evenodd" clip-rule="evenodd" d="M94 384.9v24.364c18.058 8.49 38.225 13.236 59.5 13.236 77.32 0 140-62.68 140-140 0-55.966-32.84-104.262-80.301-126.67C228.256 179.058 237 206.758 237 236.5c0 80.173-63.534 145.507-143 148.4z" fill="#E599F7" opacity=".5"/><path d="M40.132 385l-32.02 67.821C4.34 460.807 10.165 470 18.997 470h266.004c8.832 0 14.657-9.193 10.887-17.179L263.868 385H40.132z" fill="#515F7C"/><path opacity=".5" fill-rule="evenodd" clip-rule="evenodd" d="M227.002 470h58c8.832 0 14.658-9.193 10.887-17.179L263.868 385h-58l32.021 67.821c3.771 7.986-2.055 17.179-10.887 17.179z" fill="#193154"/><path d="M52 422.5c0-9.665-7.835-17.5-17.5-17.5S17 412.835 17 422.5 24.835 440 34.5 440 52 432.165 52 422.5z" fill="#193154"/><path fill-rule="evenodd" clip-rule="evenodd" d="M43.346 407.397a17.468 17.468 0 0 1 1.045 5.973c0 9.665-7.835 17.5-17.5 17.5-3.227 0-6.25-.874-8.845-2.397A17.468 17.468 0 0 1 17 422.5c0-9.665 7.835-17.5 17.5-17.5 3.227 0 6.25.873 8.846 2.397z" fill="#515F7C"/><path d="M130 422.5c0-9.665-7.835-17.5-17.5-17.5S95 412.835 95 422.5s7.835 17.5 17.5 17.5 17.5-7.835 17.5-17.5z" fill="#193154"/><path fill-rule="evenodd" clip-rule="evenodd" d="M121.346 407.397a17.484 17.484 0 0 1 1.045 5.973c0 9.665-7.835 17.5-17.5 17.5-3.227 0-6.25-.874-8.845-2.397A17.468 17.468 0 0 1 95 422.5c0-9.665 7.835-17.5 17.5-17.5 3.227 0 6.25.873 8.846 2.397z" fill="#515F7C"/><path d="M208 422.5c0-9.665-7.835-17.5-17.5-17.5s-17.5 7.835-17.5 17.5 7.835 17.5 17.5 17.5 17.5-7.835 17.5-17.5z" fill="#193154"/><path fill-rule="evenodd" clip-rule="evenodd" d="M199.346 407.397a17.484 17.484 0 0 1 1.045 5.973c0 9.665-7.835 17.5-17.5 17.5a17.42 17.42 0 0 1-8.845-2.397A17.46 17.46 0 0 1 173 422.5c0-9.665 7.835-17.5 17.5-17.5 3.227 0 6.25.873 8.846 2.397z" fill="#515F7C"/><path d="M286 422.5c0-9.665-7.835-17.5-17.5-17.5s-17.5 7.835-17.5 17.5 7.835 17.5 17.5 17.5 17.5-7.835 17.5-17.5z" fill="#193154"/><path fill-rule="evenodd" clip-rule="evenodd" d="M277.346 407.397a17.484 17.484 0 0 1 1.045 5.973c0 9.665-7.835 17.5-17.5 17.5a17.42 17.42 0 0 1-8.845-2.397A17.46 17.46 0 0 1 251 422.5c0-9.665 7.835-17.5 17.5-17.5 3.227 0 6.25.873 8.846 2.397z" fill="#354868"/><g filter="url(#filter2_f_2951_6528)"><circle cx="262.5" cy="132.5" r="46.5" fill="#E599F7"/></g><g filter="url(#filter3_f_2951_6528)"><circle cx="262.5" cy="132.5" r="26.5" fill="#fff"/></g><path d="M260.888 133.21a6.688 6.688 0 0 0-.153 9.192l98.033 105.268a4.459 4.459 0 0 1 1.168 2.961l.107 9.642a4.459 4.459 0 0 0 4.508 4.41l7.689-.085a4.459 4.459 0 0 1 3.339 1.449l117.782 117.042a9.277 9.277 0 0 0 13.477.225l11.729-11.992a9.275 9.275 0 0 0-.522-13.469L314.306 167.375a4.459 4.459 0 0 1-1.522-3.307l-.049-4.403a4.46 4.46 0 0 0-4.508-4.41l-5.971.066a4.454 4.454 0 0 1-2.985-1.103l-26.991-23.619a6.69 6.69 0 0 0-9.187.357l-2.205 2.254z" fill="#A26926"/><path opacity=".5" fill-rule="evenodd" clip-rule="evenodd" d="M507.35 382.791L361.476 211.474l156.569 146.38a9.275 9.275 0 0 1 .523 13.469l-11.218 11.468z" fill="#885316"/></g><defs><filter id="filter0_f_2951_6528" x="5" y="135" width="294" height="293" filterUnits="userSpaceOnUse" color-interpolation-filters="sRGB"><feFlood flood-opacity="0" result="BackgroundImageFix"/><feBlend in="SourceGraphic" in2="BackgroundImageFix" result="shape"/><feGaussianBlur stdDeviation="24" result="effect1_foregroundBlur_2951_6528"/></filter><filter id="filter1_f_2951_6528" x="158" y="247" width="102" height="102" filterUnits="userSpaceOnUse" color-interpolation-filters="sRGB"><feFlood flood-opacity="0" result="BackgroundImageFix"/><feBlend in="SourceGraphic" in2="BackgroundImageFix" result="shape"/><feGaussianBlur stdDeviation="4.5" result="effect1_foregroundBlur_2951_6528"/></filter><filter id="filter2_f_2951_6528" x="192" y="62" width="141" height="141" filterUnits="userSpaceOnUse" color-interpolation-filters="sRGB"><feFlood flood-opacity="0" result="BackgroundImageFix"/><feBlend in="SourceGraphic" in2="BackgroundImageFix" result="shape"/><feGaussianBlur stdDeviation="12" result="effect1_foregroundBlur_2951_6528"/></filter><filter id="filter3_f_2951_6528" x="212" y="82" width="101" height="101" filterUnits="userSpaceOnUse" color-interpolation-filters="sRGB"><feFlood flood-opacity="0" result="BackgroundImageFix"/><feBlend in="SourceGraphic" in2="BackgroundImageFix" result="shape"/><feGaussianBlur stdDeviation="12" result="effect1_foregroundBlur_2951_6528"/></filter><clipPath id="clip0_2951_6528"><path fill="#fff" d="M0 0h526v470H0z"/></clipPath></defs></svg>