<svg width="432" height="270" fill="none" xmlns="http://www.w3.org/2000/svg"><g clip-path="url(#clip0_2004_939)"><path fill-rule="evenodd" clip-rule="evenodd" d="M47 214c0 19.882 16.118 36 36 36h92c17.673 0 32-14.327 32-32 0-15.482-10.995-28.396-25.602-31.36A23.938 23.938 0 0 0 183 178c0-13.255-10.745-24-24-24a23.889 23.889 0 0 0-13.329 4.039C138.76 146.061 125.822 138 111 138c-22.091 0-40 17.909-40 40 0 .681.017 1.358.05 2.031C57.043 184.958 47 198.306 47 214z" fill="#F0F1F3"/><path fill-rule="evenodd" clip-rule="evenodd" d="M57.523 188.566l.021-.022a37.966 37.966 0 0 1-.021.022zm11.562-7.779c13.077-5.472 28.727-2.887 39.371 7.757a4 4 0 0 0 5.657-5.657c-11.538-11.538-27.89-15.328-42.59-11.371a40.276 40.276 0 0 0-.472 8.515c-.665.233-1.32.486-1.966.756zM182.987 178.798A40.186 40.186 0 0 0 175 178c-22.091 0-40 17.909-40 40a4 4 0 0 0 8 0c0-17.673 14.327-32 32-32 2.191 0 4.331.22 6.398.64a23.915 23.915 0 0 0 1.589-7.842z" fill="#fff"/><path fill-rule="evenodd" clip-rule="evenodd" d="M415 98c0 19.882-16.118 36-36 36h-92c-17.673 0-32-14.327-32-32 0-15.482 10.995-28.396 25.602-31.36A23.937 23.937 0 0 1 279 62c0-13.255 10.745-24 24-24 4.932 0 9.516 1.488 13.329 4.039C323.24 30.06 336.178 22 351 22c22.091 0 40 17.909 40 40 0 .681-.017 1.358-.051 2.03C404.958 68.959 415 82.307 415 98z" fill="#F0F1F3"/><path fill-rule="evenodd" clip-rule="evenodd" d="M398.647 67.83C396.87 82.27 388.572 95.733 375 103.568a47.792 47.792 0 0 1-24.004 6.438 4 4 0 1 1 .008-8A39.793 39.793 0 0 0 371 96.641c12.191-7.038 19.275-19.525 19.953-32.609 2.731.96 5.31 2.242 7.694 3.797zm-9-16.185A40.046 40.046 0 0 0 385.641 42a3.243 3.243 0 0 1-.104-.192 39.78 39.78 0 0 1 4.11 9.837z" fill="#fff"/><path d="M223.58 159.46l-12.503-70.907m12.503 70.907l-3.939.694-92.272-56.841m96.211 56.147l3.939-.695 67.267-84.972" stroke="#8991A6" stroke-width="4" stroke-linecap="round" stroke-linejoin="round"/><path d="M308.313 73.44l-193.776 34.167c-4.926.869-9.295-2.92-8.541-7.865 3.38-22.162 19.023-76.233 91.363-88.988 72.34-12.756 105.533 32.704 116.289 52.374 2.4 4.388-.41 9.443-5.335 10.311z" fill="#FF8787"/><mask id="a" style="mask-type:alpha" maskUnits="userSpaceOnUse" x="105" y="8" width="210" height="100"><path d="M308.313 73.44l-193.776 34.167c-4.926.869-9.295-2.92-8.541-7.865 3.38-22.162 19.023-76.233 91.363-88.988 72.34-12.756 105.533 32.704 116.289 52.374 2.4 4.388-.41 9.443-5.335 10.311z" fill="#F0F1F3"/></mask><g mask="url(#a)"><path d="M180.468 104.557c-.359-.135-7.027-2.29-5.026-3.528 21.788-13.489 36.569-34.133 39.706-60.054 1.842-15.226 1.828-29.105.033-44.264 5.336.645 10.047-.378 15.397.458 8.192 1.28 16.158 3.395 24.327 4.866 13.866 2.498 25.714 9.133 36.487 18.02 14.076 11.61 25.337 27.005 31.769 44.175 5.624 15.016 11.249 35.14 1.922 50.102-1.924 3.086-7.068 3.836-10.397 4.321l-.147.022a125.944 125.944 0 0 1-14.589 1.265c-11.192.319-21.801-1.932-32.871-3.146-14.365-1.575-28.719-3.122-43.065-4.897-9.568-1.184-19.134-2.516-28.686-3.823-5.093-.696-10.05-1.706-14.86-3.517z" fill="#E03131"/><path fill-rule="evenodd" clip-rule="evenodd" d="M236.2-.548c-.586.458-1.145.95-1.706 1.443-.336.296-.672.592-1.015.88-.222.188-.45.37-.678.55-.454.362-.909.724-1.315 1.13-.474.473-.416 2.683-.296 3.364.616.715.932 1.536 1.252 2.367.176.457.353.917.581 1.364.249.486.575.883.901 1.28.246.3.492.6.707.94 1.254 1.989 2.726 3.932 4.355 5.637 2.123 2.223 3.847 4.818 5.546 7.374.423.638.845 1.272 1.271 1.898.289.425.559.86.817 1.299-1.989 14.2-12.892 26.134-27.776 28.759-18.492 3.26-36.127-9.087-39.387-27.58-3.261-18.492 9.087-36.127 27.579-39.387 10.961-1.933 21.621 1.618 29.164 8.682z" fill="#fff"/><path fill-rule="evenodd" clip-rule="evenodd" d="M246.62 28.978c-1.989 14.2-12.892 26.134-27.776 28.759-2.605.459-5.194.609-7.727.475 1.937-5.444 3.3-11.197 4.031-17.237 1.842-15.226 1.827-29.105.033-44.264 2.525.305 4.911.237 7.29.17 2.648-.077 5.289-.152 8.107.288 1.249.195 2.492.41 3.732.639.649.524 1.28 1.073 1.89 1.644-.586.458-1.145.95-1.706 1.443-.336.296-.672.591-1.015.88-.222.187-.45.369-.679.55-.453.362-.908.723-1.314 1.13-.474.473-.416 2.682-.296 3.364.616.715.932 1.536 1.252 2.367.176.457.353.917.581 1.364.249.486.575.883.901 1.28.246.3.492.6.707.94 1.254 1.989 2.726 3.932 4.355 5.637 2.123 2.223 3.847 4.818 5.546 7.374.423.638.845 1.272 1.27 1.898.29.425.56.86.818 1.299z" fill="#FF8787"/><path d="M170.41 99.786c-6.139-10.768-9.775-21-11.466-30.472-6.205-34.761 11.942-58.97 11.942-58.97" stroke="#E03131" stroke-width="4" stroke-linecap="round"/><path d="M253.134 85.2c2.085-12.219 2.003-23.077.352-32.556-6.059-34.788-31.39-51.329-31.39-51.329" stroke="#B5281D" stroke-width="4" stroke-linecap="round"/><circle cx="117.816" cy="66.412" r="20" transform="rotate(-10 117.816 66.412)" fill="#fff"/><circle cx="302.144" cy="69.45" r="20" transform="rotate(-10 302.144 69.45)" fill="#FF8787"/></g><path fill-rule="evenodd" clip-rule="evenodd" d="M177.018 163.173c-1.11-6.294 3.092-12.295 9.386-13.405l56.979-10.047c.696-.122 1.389-.18 2.073-.177H261.4c5.507-.001 10.398 3.948 11.388 9.564l10.046 56.978c.4 2.265.109 4.494-.721 6.472a11.717 11.717 0 0 1-1.199 2.172 11.536 11.536 0 0 1-7.466 4.761l-56.978 10.047c-.678.119-1.353.177-2.018.177h-.035.03-15.995c-5.513.001-10.398-3.955-11.387-9.564l-10.047-56.978z" fill="#FAB005"/><path fill-rule="evenodd" clip-rule="evenodd" d="M182.509 160.173c-1.301-7.382 3.627-14.419 11.009-15.721l55.149-9.724.694 3.939-55.149 9.724a9.571 9.571 0 0 0-7.764 11.088l10.705 60.996c0 .001 0 0 0 0 .813 4.609 4.867 7.834 9.453 7.833.549 0 1.108-.048 1.672-.148l56.978-10.046a9.48 9.48 0 0 0 7.727-11.01l-8.509-48.255 3.939-.694 8.509 48.255c1.301 7.378-3.604 14.344-10.972 15.643l-56.978 10.046c-.792.14-1.583.208-2.365.209-6.439.001-12.229-4.531-13.394-11.138l-10.704-60.997z" fill="#8991A6"/><path d="M251.398 135.544c7.412-.001 13.995 5.306 15.328 12.869l10.047 56.978a4.001 4.001 0 0 1-3.245 4.634l-.694-3.939-10.047-56.978a11.544 11.544 0 0 0-5.341-7.85 11.545 11.545 0 0 0-6.047-1.714h-6c-.665 0-1.339.058-2.017.177l-3.985.349a4 4 0 0 1 3.29-4.288c.908-.16 1.815-.238 2.712-.238h5.999z" fill="#8991A6"/><path d="M186.404 149.768c-6.294 1.11-10.496 7.111-9.386 13.405l10.046 56.978c1.109 6.286 7.111 10.496 13.405 9.386l56.979-10.046c6.285-1.109 10.494-7.12 9.386-13.405l-10.047-56.979c-1.11-6.294-7.12-10.494-13.405-9.386l-56.978 10.047z" fill="#FFD43B"/><path d="M185.816 163.091a4.34 4.34 0 0 1 3.519-5.027 4.34 4.34 0 0 1 1.507 8.547 4.334 4.334 0 0 1-5.026-3.52zm54.129-9.544a4.334 4.334 0 0 1 3.52-5.027 4.335 4.335 0 0 1 5.027 3.52 4.33 4.33 0 0 1-3.52 5.027 4.329 4.329 0 0 1-5.027-3.52zm-36.038 62.166a4.335 4.335 0 0 1-3.52 5.027 4.335 4.335 0 0 1-5.027-3.52 4.334 4.334 0 0 1 3.52-5.026 4.335 4.335 0 0 1 5.027 3.519zm45.582-8.037a4.33 4.33 0 0 1 3.52-5.027 4.33 4.33 0 0 1 5.027 3.52 4.33 4.33 0 0 1-3.52 5.027 4.33 4.33 0 0 1-5.027-3.52zM213.143 171.326c-1.567.276-2.594 1.944-2.346 3.351l.251 1.424c.446 2.529-1.152 4.61-3.52 5.027h4c2.368-.417 3.966-2.498 3.52-5.027l-.251-1.424c-.248-1.407.779-3.075 2.346-3.351l10.356-1.661h-4l-10.356 1.661z" fill="#FAB005"/><path d="M224.132 160.768c6.054.001 11.432 4.437 12.493 10.456.797 4.523-.783 8.987-4.17 11.751l-7.296 6.519.076.427a4.33 4.33 0 0 1-3.52 5.027h4a4.33 4.33 0 0 0 3.52-5.027l-.076-.427 7.296-6.519c3.386-2.764 4.968-7.228 4.17-11.751-1.061-6.019-6.439-10.455-12.493-10.456h-4zM229.171 203.914a5.781 5.781 0 0 0-5.686-4.782h4a5.781 5.781 0 0 1 5.686 4.782 5.78 5.78 0 0 1-4.694 6.703h-4a5.78 5.78 0 0 0 4.694-6.703z" fill="#FAB005"/><path d="M223.499 169.665c2.172-.383 4.225 1.054 4.58 3.066.27 1.531-.38 2.949-1.287 3.844l-9.17 7.969a4.343 4.343 0 0 0-1.436 4.035l.502 2.849a4.33 4.33 0 0 0 5.027 3.52 4.33 4.33 0 0 0 3.52-5.027l-.076-.427 7.296-6.519c3.387-2.764 4.968-7.228 4.17-11.751-1.186-6.731-7.771-11.481-14.661-10.266l-10.328 1.821c-6.285 1.108-10.466 7.28-9.386 13.405l.251 1.424c.446 2.529 2.659 3.938 5.027 3.52 2.368-.418 3.966-2.498 3.52-5.027l-.251-1.424c-.248-1.407.779-3.075 2.346-3.352l10.356-1.66zm.979 40.952a5.78 5.78 0 0 0 4.693-6.703 5.78 5.78 0 0 0-6.703-4.693 5.78 5.78 0 0 0-4.693 6.703 5.78 5.78 0 0 0 6.703 4.693z" fill="#fff"/><g clip-path="url(#clip1_2004_939)"><path d="M371.996 203.849l-.787 2.935a30.792 30.792 0 0 1-16.816-13.522c.289-.589.6-1.17.812-1.672a30.484 30.484 0 0 1 9.214-9.765c1.278-.865 2.979.204 2.795 1.738-.734 7.046.906 14.246 4.782 20.286z" fill="#C2C7D1"/><path d="M384.067 193.849c-4.843-1.293-9.818 1.581-11.015 6.45l-1.744 6.511a30.794 30.794 0 0 1-20.777-24.551c-.335-1.561-2.249-2.159-3.246-.982a30.603 30.603 0 0 0-6.246 11.918c-2.078 7.755-.281 15.997 3.867 22.861 1 1.645 2.101 3.223 3.297 4.731l-16.815-.287a1.827 1.827 0 0 0-1.848 1.804c-.002.201.027.407.089.597 1.116 3.457 4.479 9.705 14.542 12.853a3.64 3.64 0 0 0 2.655-.214l8.792-4.233 8.415 2.262c9.668 2.599 19.617-3.149 22.22-12.819l4.702-17.548 5.284-6.097-12.172-3.256zm-2.821 10.53a1.815 1.815 0 0 1-1.284-2.224 1.82 1.82 0 0 1 2.225-1.288 1.814 1.814 0 0 1 1.281 2.223c-.357.944-1.258 1.547-2.222 1.289z" fill="#F0F1F3"/><path d="M381.245 204.379a1.82 1.82 0 0 1 .941-3.512 1.814 1.814 0 0 1 1.282 2.223c-.357.943-1.259 1.547-2.223 1.289z" fill="#F0F1F3"/></g></g><defs><clipPath id="clip0_2004_939"><path fill="#fff" d="M0 0h432v270H0z"/></clipPath><clipPath id="clip1_2004_939"><path fill="#fff" transform="rotate(15 -493.951 1386.915)" d="M0 0h58.062v58.062H0z"/></clipPath></defs></svg>